# xmcd
#
# Track frame offsets: 
#        150
#        11547
#        24927
#        38537
#        50967
#        65702
#        78002
#        90687
#        102440
#        116115
#
# Disc length: 1716 seconds
#
# Revision: 3
# Processed by: cddbd v1.5.2PL0 Copyright (c) Steve Scherf et al.
# Submitted via: ExactAudioCopy v0.99pb4
#
DISCID=7906b20a
DTITLE=Muddy Waters - Mississippi
DYEAR=1996
DGENRE=
TTITLE0=I Can't Call Her Sugar
TTITLE1=You Can't Lose What You Ain't Never Had
TTITLE2=Sad Letter
TTITLE3=I Can't Be Satisfied
TTITLE4=Baby Please Don't Go
TTITLE5=Walkin' Thru The Park
TTITLE6=Trainfare Blues
TTITLE7=Settin' Here Drinkin'
TTITLE8=I Got A Rich Man's Woman
TTITLE9=Mean Mistreater
EXTD=Masters Music, MACD 61030-2\nAll tracks previously released.
EXTT0=
EXTT1=
EXTT2=
EXTT3=
EXTT4=
EXTT5=
EXTT6=
EXTT7=
EXTT8=
EXTT9=
PLAYORDER=
